<?xml version="1.0" encoding="utf-8"?>
<!-- Generator: Adobe Illustrator 17.0.2, SVG Export Plug-In . SVG Version: 6.00 Build 0)  -->
<!DOCTYPE svg PUBLIC "-//W3C//DTD SVG 1.1//EN" "http://www.w3.org/Graphics/SVG/1.1/DTD/svg11.dtd">
<svg version="1.1" id="Layer_1" xmlns="http://www.w3.org/2000/svg" xmlns:xlink="http://www.w3.org/1999/xlink" x="0px" y="0px"
	 width="312.321px" height="309.852px" viewBox="0 0 312.321 309.852" enable-background="new 0 0 312.321 309.852"
	 xml:space="preserve">
<path fill="#FFFFFF" d="M297.74,219.372c-5.128,0-9.286-4.158-9.286-9.286v-55.714c0-71.683-58.317-130-130-130s-130,58.317-130,130
	v55.714c0,5.128-4.158,9.286-9.286,9.286s-9.286-4.158-9.286-9.286v-55.714C9.882,72.449,76.531,5.8,158.454,5.8
	s148.571,66.648,148.571,148.571v55.714C307.025,215.214,302.868,219.372,297.74,219.372z M84.168,256.515v-92.857
	c0-5.128-4.158-9.286-9.286-9.286H56.311c-5.128,0-9.286,4.158-9.286,9.286v92.857c0,5.128,4.158,9.286,9.286,9.286h18.571
	C80.01,265.8,84.168,261.643,84.168,256.515z M269.882,256.515v-92.857c0-5.128-4.158-9.286-9.286-9.286h-18.571
	c-5.128,0-9.286,4.158-9.286,9.286v92.857c0,5.128,4.158,9.286,9.286,9.286h18.571C265.725,265.8,269.882,261.643,269.882,256.515z"
	/>
<path fill="#FFFFFF" d="M222.424,225.8c0-11.978-8.775-21.904-20.247-23.706c2.652-3.393,4.247-7.653,4.247-12.294
	c0-11.046-8.954-20-20-20h-5.371c0.885-2.503,1.371-5.194,1.371-8c0-13.255-10.745-24-24-24c0,13.255-13.334,20-24,24
	c-12.411,4.654-24,10.745-24,24c0,6.184,2.34,11.82,6.182,16.076c-12.404,0.93-22.182,11.282-22.182,23.924
	c0,12.855,10.107,23.348,22.808,23.97l4.446,50.978c0.206,2.377,2.196,4.052,4.581,4.052h64.391c2.385,0,4.375-1.675,4.581-4.052
	l4.446-51.054C212.349,249.042,222.424,238.635,222.424,225.8z"/>
</svg>
